<svg version="1.2" xmlns="http://www.w3.org/2000/svg" viewBox="0 0 1080 1080" width="1080" height="1080">
	<title>CVSavesFav</title>
	<style>
		.s0 { fill: #000000 } 
		.s1 { fill: #0cb580 } 
	</style>
	<path id="CV$" class="s0" aria-label="CV$"  d="m402 611c45 0 72-21.4 72-57.2v-3.4h-42v3.4c0 15.2-7.2 21.2-29.4 21.2-27.2 0-34.6-6.4-34.6-33 0-26.6 7.4-33 34.6-33 22.2 0 29.4 6 29.4 21.2v3.4h42v-3.4c0-35.8-27-57.2-72-57.2-46.6 0-74 27.2-74 69 0 41.8 27.4 69 74 69zm181.8-2l53.8-134h-45.2l-33.8 96h-2.6l-34.6-96h-45.4l53.8 134z"/>
	<path id="CV$" class="s1" aria-label="CV$"  d="m677.2 626.9h15l2.2-15.5c30.2-0.9 50-17.8 50-42.6 0-17.5-9.8-28.8-30.6-34.8l-7.6-2.3 6-40.4c8.6 2.8 14 9.2 15 18.1h24.6c-1-19.8-15.6-34.6-36.4-39l2.4-16.7h-15l-2.2 15.4c-29.6 0.8-49.4 17.7-49.4 43.3 0 17.3 11.2 29.7 32.4 35.9l5 1.5-5.8 39.8c-10.6-2.4-16.8-8.8-17.8-18.4h-24.8c1.4 21.8 15.8 35.9 39.4 39.3zm-1.6-117.5c0-11.1 8.2-18.2 21.8-19.4l-5.6 37.6c-11-3.3-16.2-9-16.2-18.2zm29.4 45.1c11 3.2 15.2 7.7 15.2 16.4 0 10.7-8.6 18-22.6 19.5l5.4-36.4z"/>
</svg>