<svg version="1.2" xmlns="http://www.w3.org/2000/svg" viewBox="0 0 1080 1080" width="1080" height="1080">
	<title>CVSaves</title>
	<style>
		.s0 { fill: #ffffff } 
	</style>
	<path id="CVSaves" class="s0" aria-label="CVSaves"  d="m219 609c45 0 72-21.4 72-57.2v-3.4h-42v3.4c0 15.2-7.2 21.2-29.4 21.2-27.2 0-34.6-6.4-34.6-33 0-26.6 7.4-33 34.6-33 22.2 0 29.4 6 29.4 21.2v3.4h42v-3.4c0-35.8-27-57.2-72-57.2-46.6 0-74 27.2-74 69 0 41.8 27.4 69 74 69zm181.8-2l53.8-134h-45.2l-33.8 96h-2.6l-34.6-96h-45.4l53.8 134zm69.4-98.7c0 16.5 9.4 27.3 30 33.8l21 7c13.6 4.3 19 10.7 19 22 0 15.8-14 26.5-34.6 26.5-20 0-31.8-8.8-33.6-24.1h-14c2.6 23.5 19 35.9 47.2 35.9 28.8 0 48.8-15.9 48.8-38.9 0-16.3-8.8-26.9-28-33.1l-21.4-6.9c-14.4-4.7-20.6-11.7-20.6-23.1 0-15.5 12.6-25.4 31.6-25.4 19 0 30.6 8.6 32.4 24h13.8c-1.6-22-19.6-36.1-45.8-36.1-27 0-45.8 15.8-45.8 38.4zm127.8 101c15.8 0 30-7 37.4-18.3l-1.2 16h11.4l9.8-59c3.6-21.1-9.8-34.4-34.4-34.4-23 0-38.4 11.1-41.4 30.2h12.6c2.2-12.9 11.6-19.7 28-19.7 17.2 0 25.2 8.6 22 24.2l-0.4 2.7-31.6 2.2c-25.8 2.1-40.6 13.8-40.6 31.8 0 14.7 11.2 24.3 28.4 24.3zm4-10.4c-11.8 0-19.2-5.6-19.2-14.5 0-12.4 10.2-20.3 28.8-21.8l28.8-2.2-0.8 5.1c-3.4 20.4-17.8 33.4-37.6 33.4zm92 8.1h13l54.8-91h-14.4l-35.2 59.6c-4.2 7.1-7 12.6-10 18.4-1.2-7.7-2.4-12.8-3.6-18.4l-15-59.6h-13.2zm107.2 2.3c20.6 0 38.2-11.1 44.6-29.4h-13.2c-4.8 11.7-17 18.6-31.2 18.6-17.4 0-28.6-11.8-28.6-30.2 0-1.9 0-3.6 0.2-5.3h75.8l1-6.2c4.2-24.6-11.6-43.2-38.2-43.2-29.2 0-51.8 24-51.8 55.2 0 23.9 16.8 40.5 41.4 40.5zm10-85c18 0 28.8 11.8 25.8 29.7h-62.2c5-17.5 19.2-29.7 36.4-29.7zm47 57.9c0 16 14.2 27.1 34.6 27.1 21.8 0 36.6-11.1 36.6-27.5 0-11.5-6-18.2-20.2-22.9l-15.4-5.1c-9.2-3.2-13.4-7.7-13.4-14.7 0-9.4 8.2-15.2 21-15.2 13.2 0 19.6 5.5 20 17.1h13.2c0-16.9-12.2-27.4-32.4-27.4-20.8 0-34.6 10.5-34.6 26.1 0 11.5 7 19.2 20.4 23.5l15.8 5.1c9.2 3.2 12.6 6.9 12.6 14.1 0 9.9-9.4 16.5-23.2 16.5-13 0-21.8-6.7-21.8-16.7z"/>
</svg>