<svg version="1.2" xmlns="http://www.w3.org/2000/svg" viewBox="0 0 1080 1080" width="1080" height="1080">
	<title>CVSavesLong</title>
	<style>
		.s0 { fill: #000000 } 
	</style>
	<path id=" by CVSolutions" class="s0" aria-label=" by CVSolutions"  d="m189.9 680l0.5-7.4c2.6 5.6 7.6 8.3 13.7 8.3 10.6 0 16.8-8.1 16.8-19 0-10.9-6.1-19.2-16.7-19.2-6.1 0-11.1 2.7-13.6 8v-25.4h-5.2v54.7zm0.7-18.2c0-8.3 4.7-14.4 12.6-14.4 7.9 0 12.5 6.1 12.5 14.4 0 8.4-4.6 14.4-12.5 14.4-7.9 0-12.6-6-12.6-14.4zm33.1 34c1.7 0.4 3.3 0.6 5.5 0.6 5.2 0 8.7-2.4 10.8-8.1l16.6-44.6h-5.3l-11.5 31.7-11.7-31.7h-5.4l14.7 38.5-1.6 4.3c-1.8 4.8-5 5.1-8.1 5.1h-4zm108.9-14.5c31.5 0 50.4-15 50.4-40v-2.4h-29.4v2.4c0 10.6-5 14.8-20.6 14.8-19 0-24.2-4.5-24.2-23.1 0-18.6 5.2-23.1 24.2-23.1 15.6 0 20.6 4.2 20.6 14.9v2.3h29.4v-2.3c0-25.1-18.9-40.1-50.4-40.1-32.6 0-51.8 19.1-51.8 48.3 0 29.3 19.2 48.3 51.8 48.3zm127.5-1.4l37.6-93.8h-31.6l-23.7 67.2h-1.8l-24.2-67.2h-31.8l37.7 93.8zm48.9-69.1c0 11.6 6.6 19.1 21 23.7l14.7 4.9c9.6 3 13.3 7.5 13.3 15.4 0 11-9.8 18.5-24.2 18.5-14 0-22.2-6.1-23.5-16.8h-9.8c1.8 16.5 13.3 25.1 33 25.1 20.2 0 34.2-11.2 34.2-27.2 0-11.5-6.2-18.8-19.6-23.2l-15-4.8c-10.1-3.3-14.4-8.2-14.4-16.2 0-10.8 8.8-17.8 22.1-17.8 13.3 0 21.4 6.1 22.7 16.9h9.7c-1.2-15.4-13.8-25.3-32.1-25.3-18.9 0-32.1 11-32.1 26.8zm69.8 41.8c0 17.2 12.1 28.9 29.9 28.9 21.2 0 38.5-17 38.5-38 0-17.1-12-29-29.8-29-21.3 0-38.6 17.1-38.6 38.1zm9.3-0.4c0-16.5 12.8-29.9 28.3-29.9 13.2 0 21.4 8.3 21.4 21.6 0 16.4-12.7 29.8-28.2 29.8-13.2 0-21.5-8.3-21.5-21.5zm78.2 27.7l16.1-95.9h-9.1l-16.1 95.9zm78.7-63.7l-5.6 33.2c-2.5 15-11.5 24.2-24.5 24.2-11.2 0-16.6-7.1-14.4-20.5l6.3-36.9h-9.1l-6.6 38.9c-2.6 15.6 6.3 26.4 21.3 26.4 10.4 0 17.8-4.2 23.9-13l-0.8 11.4h8l10.6-63.7zm32.6 63.7l9.4-56.3h13.3l1.2-7.4h-13.3l3.4-20.1h-9.1l-3.4 20.1h-13.1l-1.3 7.4h13.2l-9.5 56.3zm44.3-81.3c4.4 0 8-3.7 8-7.8 0-3.1-2.5-5.5-5.9-5.5-4.3 0-8.1 3.7-8.1 7.8 0 3.1 2.5 5.5 6 5.5zm-18.2 81.3h9.1l10.8-63.7h-9.2zm29-27.3c0 17.2 12.1 28.9 29.9 28.9 21.2 0 38.5-17 38.5-38 0-17.1-12-29-29.8-29-21.3 0-38.6 17.1-38.6 38.1zm9.3-0.4c0-16.5 12.8-29.9 28.3-29.9 13.2 0 21.4 8.3 21.4 21.6 0 16.4-12.7 29.8-28.2 29.8-13.2 0-21.5-8.2-21.5-21.5zm77.8 27.7l5.6-33.1c2.5-15 12-24.4 25.2-24.4 11.9 0 17.3 7.3 14.9 20.6l-6.3 36.9h9.3l6.4-38.8c2.7-15.8-6.4-26.6-22-26.6-10.3 0-18 4.4-24.3 13.2l0.7-11.5h-8l-10.6 63.7zm64.6-17.3c0 11.1 10 18.9 24.3 18.9 15.2 0 25.6-7.8 25.6-19.2 0-8-4.2-12.8-14.2-16.1l-10.7-3.5c-6.5-2.2-9.4-5.4-9.4-10.3 0-6.6 5.7-10.6 14.7-10.6 9.2 0 13.7 3.8 14 11.9h9.2c0-11.8-8.5-19.2-22.7-19.2-14.5 0-24.2 7.4-24.2 18.3 0 8 4.9 13.4 14.3 16.5l11.1 3.5c6.4 2.3 8.8 4.9 8.8 9.9 0 7-6.6 11.6-16.3 11.6-9.1 0-15.2-4.8-15.2-11.7z"/>
	<path id="CVSaves" class="s0" aria-label="CVSaves"  d="m133 539c45 0 72-21.4 72-57.2v-3.4h-42v3.4c0 15.2-7.2 21.2-29.4 21.2-27.2 0-34.6-6.4-34.6-33 0-26.6 7.4-33 34.6-33 22.2 0 29.4 6 29.4 21.2v3.4h42v-3.4c0-35.8-27-57.2-72-57.2-46.6 0-74 27.2-74 69 0 41.8 27.4 69 74 69zm181.8-2l53.8-134h-45.2l-33.8 96h-2.6l-34.6-96h-45.4l53.8 134zm69.4-98.7c0 16.5 9.4 27.3 30 33.8l21 7c13.6 4.3 19 10.7 19 22 0 15.8-14 26.5-34.6 26.5-20 0-31.8-8.8-33.6-24.1h-14c2.6 23.5 19 35.9 47.2 35.9 28.8 0 48.8-15.9 48.8-38.9 0-16.3-8.8-26.9-28-33.1l-21.4-6.9c-14.4-4.7-20.6-11.7-20.6-23.1 0-15.5 12.6-25.4 31.6-25.4 19 0 30.6 8.6 32.4 24h13.8c-1.6-22-19.6-36.1-45.8-36.1-27 0-45.8 15.8-45.8 38.4zm127.8 101c15.8 0 30-7 37.4-18.3l-1.2 16h11.4l9.8-59c3.6-21.1-9.8-34.4-34.4-34.4-23 0-38.4 11.1-41.4 30.2h12.6c2.2-12.9 11.6-19.7 28-19.7 17.2 0 25.2 8.6 22 24.2l-0.4 2.7-31.6 2.2c-25.8 2.1-40.6 13.8-40.6 31.8 0 14.7 11.2 24.3 28.4 24.3zm4-10.4c-11.8 0-19.2-5.6-19.2-14.5 0-12.4 10.2-20.3 28.8-21.8l28.8-2.2-0.8 5.1c-3.4 20.4-17.8 33.4-37.6 33.4zm92 8.1h13l54.8-91h-14.4l-35.2 59.6c-4.2 7.1-7 12.6-10 18.4-1.2-7.7-2.4-12.8-3.6-18.4l-15-59.6h-13.2zm107.2 2.3c20.6 0 38.2-11.1 44.6-29.4h-13.2c-4.8 11.7-17 18.6-31.2 18.6-17.4 0-28.6-11.8-28.6-30.2 0-1.9 0-3.6 0.2-5.3h75.8l1-6.2c4.2-24.6-11.6-43.2-38.2-43.2-29.2 0-51.8 24-51.8 55.2 0 23.9 16.8 40.5 41.4 40.5zm10-85c18 0 28.8 11.8 25.8 29.7h-62.2c5-17.5 19.2-29.7 36.4-29.7zm47 57.9c0 16 14.2 27.1 34.6 27.1 21.8 0 36.6-11.1 36.6-27.5 0-11.5-6-18.2-20.2-22.9l-15.4-5.1c-9.2-3.2-13.4-7.7-13.4-14.7 0-9.4 8.2-15.2 21-15.2 13.2 0 19.6 5.5 20 17.1h13.2c0-16.9-12.2-27.4-32.4-27.4-20.8 0-34.6 10.5-34.6 26.1 0 11.5 7 19.2 20.4 23.5l15.8 5.1c9.2 3.2 12.6 6.9 12.6 14.1 0 9.9-9.4 16.5-23.2 16.5-13 0-21.8-6.7-21.8-16.7z"/>
</svg>